<svg width="1440" height="213" viewBox="0 0 1440 213" fill="none" xmlns="http://www.w3.org/2000/svg">
<g filter="url(#filter0_d_196_1397)">
<rect width="1440" height="213" fill="#71779A"/>
<path d="M995.647 120V106H1001.55C1003.04 106 1004.35 106.293 1005.49 106.88C1006.63 107.467 1007.52 108.287 1008.15 109.34C1008.79 110.393 1009.11 111.613 1009.11 113C1009.11 114.387 1008.79 115.607 1008.15 116.66C1007.52 117.713 1006.63 118.533 1005.49 119.12C1004.35 119.707 1003.04 120 1001.55 120H995.647ZM997.647 118.26H1001.43C1002.59 118.26 1003.59 118.04 1004.43 117.6C1005.28 117.16 1005.94 116.547 1006.41 115.76C1006.87 114.96 1007.11 114.04 1007.11 113C1007.11 111.947 1006.87 111.027 1006.41 110.24C1005.94 109.453 1005.28 108.84 1004.43 108.4C1003.59 107.96 1002.59 107.74 1001.43 107.74H997.647V118.26ZM1016.61 120.12C1015.48 120.12 1014.48 119.887 1013.61 119.42C1012.76 118.953 1012.09 118.313 1011.61 117.5C1011.14 116.687 1010.91 115.753 1010.91 114.7C1010.91 113.647 1011.14 112.713 1011.59 111.9C1012.06 111.087 1012.69 110.453 1013.49 110C1014.3 109.533 1015.22 109.3 1016.23 109.3C1017.26 109.3 1018.16 109.527 1018.95 109.98C1019.74 110.433 1020.35 111.073 1020.79 111.9C1021.24 112.713 1021.47 113.667 1021.47 114.76C1021.47 114.84 1021.46 114.933 1021.45 115.04C1021.45 115.147 1021.44 115.247 1021.43 115.34H1012.41V113.96H1020.43L1019.65 114.44C1019.66 113.76 1019.52 113.153 1019.23 112.62C1018.94 112.087 1018.53 111.673 1018.01 111.38C1017.5 111.073 1016.91 110.92 1016.23 110.92C1015.56 110.92 1014.97 111.073 1014.45 111.38C1013.93 111.673 1013.52 112.093 1013.23 112.64C1012.94 113.173 1012.79 113.787 1012.79 114.48V114.8C1012.79 115.507 1012.95 116.14 1013.27 116.7C1013.6 117.247 1014.06 117.673 1014.65 117.98C1015.24 118.287 1015.91 118.44 1016.67 118.44C1017.3 118.44 1017.86 118.333 1018.37 118.12C1018.89 117.907 1019.34 117.587 1019.73 117.16L1020.79 118.4C1020.31 118.96 1019.71 119.387 1018.99 119.68C1018.28 119.973 1017.49 120.12 1016.61 120.12ZM1027.18 120.12C1026.3 120.12 1025.46 120 1024.66 119.76C1023.87 119.52 1023.25 119.227 1022.8 118.88L1023.6 117.36C1024.05 117.667 1024.61 117.927 1025.28 118.14C1025.94 118.353 1026.62 118.46 1027.32 118.46C1028.21 118.46 1028.85 118.333 1029.24 118.08C1029.64 117.827 1029.84 117.473 1029.84 117.02C1029.84 116.687 1029.72 116.427 1029.48 116.24C1029.24 116.053 1028.92 115.913 1028.52 115.82C1028.13 115.727 1027.7 115.647 1027.22 115.58C1026.74 115.5 1026.26 115.407 1025.78 115.3C1025.3 115.18 1024.86 115.02 1024.46 114.82C1024.06 114.607 1023.74 114.32 1023.5 113.96C1023.26 113.587 1023.14 113.093 1023.14 112.48C1023.14 111.84 1023.32 111.28 1023.68 110.8C1024.04 110.32 1024.54 109.953 1025.2 109.7C1025.86 109.433 1026.65 109.3 1027.56 109.3C1028.25 109.3 1028.95 109.387 1029.66 109.56C1030.38 109.72 1030.96 109.953 1031.42 110.26L1030.6 111.78C1030.12 111.46 1029.62 111.24 1029.1 111.12C1028.58 111 1028.06 110.94 1027.54 110.94C1026.7 110.94 1026.07 111.08 1025.66 111.36C1025.24 111.627 1025.04 111.973 1025.04 112.4C1025.04 112.76 1025.16 113.04 1025.4 113.24C1025.65 113.427 1025.97 113.573 1026.36 113.68C1026.76 113.787 1027.2 113.88 1027.68 113.96C1028.16 114.027 1028.64 114.12 1029.12 114.24C1029.6 114.347 1030.03 114.5 1030.42 114.7C1030.82 114.9 1031.14 115.18 1031.38 115.54C1031.63 115.9 1031.76 116.38 1031.76 116.98C1031.76 117.62 1031.57 118.173 1031.2 118.64C1030.82 119.107 1030.3 119.473 1029.62 119.74C1028.94 119.993 1028.12 120.12 1027.18 120.12ZM1038.88 120.12C1037.74 120.12 1036.74 119.887 1035.88 119.42C1035.02 118.953 1034.36 118.313 1033.88 117.5C1033.41 116.687 1033.18 115.753 1033.18 114.7C1033.18 113.647 1033.4 112.713 1033.86 111.9C1034.32 111.087 1034.96 110.453 1035.76 110C1036.57 109.533 1037.48 109.3 1038.5 109.3C1039.52 109.3 1040.43 109.527 1041.22 109.98C1042 110.433 1042.62 111.073 1043.06 111.9C1043.51 112.713 1043.74 113.667 1043.74 114.76C1043.74 114.84 1043.73 114.933 1043.72 115.04C1043.72 115.147 1043.71 115.247 1043.7 115.34H1034.68V113.96H1042.7L1041.92 114.44C1041.93 113.76 1041.79 113.153 1041.5 112.62C1041.2 112.087 1040.8 111.673 1040.28 111.38C1039.77 111.073 1039.18 110.92 1038.5 110.92C1037.83 110.92 1037.24 111.073 1036.72 111.38C1036.2 111.673 1035.79 112.093 1035.5 112.64C1035.2 113.173 1035.06 113.787 1035.06 114.48V114.8C1035.06 115.507 1035.22 116.14 1035.54 116.7C1035.87 117.247 1036.33 117.673 1036.92 117.98C1037.5 118.287 1038.18 118.44 1038.94 118.44C1039.56 118.44 1040.13 118.333 1040.64 118.12C1041.16 117.907 1041.61 117.587 1042 117.16L1043.06 118.4C1042.58 118.96 1041.98 119.387 1041.26 119.68C1040.55 119.973 1039.76 120.12 1038.88 120.12ZM1052.06 109.3C1052.93 109.3 1053.69 109.467 1054.34 109.8C1055.01 110.133 1055.53 110.64 1055.9 111.32C1056.28 112 1056.46 112.86 1056.46 113.9V120H1054.54V114.12C1054.54 113.093 1054.29 112.32 1053.78 111.8C1053.29 111.28 1052.59 111.02 1051.68 111.02C1051 111.02 1050.41 111.153 1049.9 111.42C1049.4 111.687 1049 112.08 1048.72 112.6C1048.46 113.12 1048.32 113.767 1048.32 114.54V120H1046.4V109.4H1048.24V112.26L1047.94 111.5C1048.29 110.807 1048.82 110.267 1049.54 109.88C1050.26 109.493 1051.1 109.3 1052.06 109.3ZM1062.6 120L1057.96 109.4H1059.96L1064.08 119H1063.12L1067.32 109.4H1069.2L1064.56 120H1062.6ZM1075.24 120.12C1074.17 120.12 1073.23 119.887 1072.4 119.42C1071.57 118.953 1070.92 118.313 1070.44 117.5C1069.96 116.673 1069.72 115.74 1069.72 114.7C1069.72 113.647 1069.96 112.713 1070.44 111.9C1070.92 111.087 1071.57 110.453 1072.4 110C1073.23 109.533 1074.17 109.3 1075.24 109.3C1076.29 109.3 1077.23 109.533 1078.06 110C1078.9 110.453 1079.55 111.087 1080.02 111.9C1080.5 112.7 1080.74 113.633 1080.74 114.7C1080.74 115.753 1080.5 116.687 1080.02 117.5C1079.55 118.313 1078.9 118.953 1078.06 119.42C1077.23 119.887 1076.29 120.12 1075.24 120.12ZM1075.24 118.44C1075.92 118.44 1076.53 118.287 1077.06 117.98C1077.61 117.673 1078.03 117.24 1078.34 116.68C1078.65 116.107 1078.8 115.447 1078.8 114.7C1078.8 113.94 1078.65 113.287 1078.34 112.74C1078.03 112.18 1077.61 111.747 1077.06 111.44C1076.53 111.133 1075.92 110.98 1075.24 110.98C1074.56 110.98 1073.95 111.133 1073.42 111.44C1072.89 111.747 1072.46 112.18 1072.14 112.74C1071.82 113.287 1071.66 113.94 1071.66 114.7C1071.66 115.447 1071.82 116.107 1072.14 116.68C1072.46 117.24 1072.89 117.673 1073.42 117.98C1073.95 118.287 1074.56 118.44 1075.24 118.44ZM1083.39 120V105.16H1085.31V120H1083.39ZM1091.76 120L1087.12 109.4H1089.12L1093.24 119H1092.28L1096.48 109.4H1098.36L1093.72 120H1091.76ZM1100.15 120V109.4H1102.07V120H1100.15ZM1101.11 107.36C1100.74 107.36 1100.43 107.24 1100.17 107C1099.93 106.76 1099.81 106.467 1099.81 106.12C1099.81 105.76 1099.93 105.46 1100.17 105.22C1100.43 104.98 1100.74 104.86 1101.11 104.86C1101.49 104.86 1101.79 104.98 1102.03 105.22C1102.29 105.447 1102.41 105.733 1102.41 106.08C1102.41 106.44 1102.29 106.747 1102.05 107C1101.81 107.24 1101.5 107.36 1101.11 107.36ZM1110.12 120.12C1109.09 120.12 1108.17 119.893 1107.36 119.44C1106.56 118.987 1105.92 118.353 1105.46 117.54C1104.99 116.727 1104.76 115.78 1104.76 114.7C1104.76 113.62 1104.99 112.68 1105.46 111.88C1105.92 111.067 1106.56 110.433 1107.36 109.98C1108.17 109.527 1109.09 109.3 1110.12 109.3C1111.01 109.3 1111.82 109.5 1112.54 109.9C1113.26 110.3 1113.83 110.9 1114.26 111.7C1114.7 112.5 1114.92 113.5 1114.92 114.7C1114.92 115.9 1114.7 116.9 1114.28 117.7C1113.86 118.5 1113.3 119.107 1112.58 119.52C1111.86 119.92 1111.04 120.12 1110.12 120.12ZM1110.28 118.44C1110.94 118.44 1111.54 118.287 1112.08 117.98C1112.62 117.673 1113.05 117.24 1113.36 116.68C1113.68 116.107 1113.84 115.447 1113.84 114.7C1113.84 113.94 1113.68 113.287 1113.36 112.74C1113.05 112.18 1112.62 111.747 1112.08 111.44C1111.54 111.133 1110.94 110.98 1110.28 110.98C1109.6 110.98 1108.99 111.133 1108.46 111.44C1107.92 111.747 1107.5 112.18 1107.18 112.74C1106.86 113.287 1106.7 113.94 1106.7 114.7C1106.7 115.447 1106.86 116.107 1107.18 116.68C1107.5 117.24 1107.92 117.673 1108.46 117.98C1108.99 118.287 1109.6 118.44 1110.28 118.44ZM1113.9 120V117.14L1114.02 114.68L1113.82 112.22V105.16H1115.74V120H1113.9ZM1123.91 120.12C1122.84 120.12 1121.9 119.887 1121.07 119.42C1120.24 118.953 1119.59 118.313 1119.11 117.5C1118.63 116.673 1118.39 115.74 1118.39 114.7C1118.39 113.647 1118.63 112.713 1119.11 111.9C1119.59 111.087 1120.24 110.453 1121.07 110C1121.9 109.533 1122.84 109.3 1123.91 109.3C1124.96 109.3 1125.9 109.533 1126.73 110C1127.57 110.453 1128.22 111.087 1128.69 111.9C1129.17 112.7 1129.41 113.633 1129.41 114.7C1129.41 115.753 1129.17 116.687 1128.69 117.5C1128.22 118.313 1127.57 118.953 1126.73 119.42C1125.9 119.887 1124.96 120.12 1123.91 120.12ZM1123.91 118.44C1124.59 118.44 1125.2 118.287 1125.73 117.98C1126.28 117.673 1126.7 117.24 1127.01 116.68C1127.32 116.107 1127.47 115.447 1127.47 114.7C1127.47 113.94 1127.32 113.287 1127.01 112.74C1126.7 112.18 1126.28 111.747 1125.73 111.44C1125.2 111.133 1124.59 110.98 1123.91 110.98C1123.23 110.98 1122.62 111.133 1122.09 111.44C1121.56 111.747 1121.13 112.18 1120.81 112.74C1120.49 113.287 1120.33 113.94 1120.33 114.7C1120.33 115.447 1120.49 116.107 1120.81 116.68C1121.13 117.24 1121.56 117.673 1122.09 117.98C1122.62 118.287 1123.23 118.44 1123.91 118.44ZM1143.06 120.12C1142.18 120.12 1141.37 119.92 1140.64 119.52C1139.92 119.107 1139.34 118.5 1138.9 117.7C1138.47 116.9 1138.26 115.9 1138.26 114.7C1138.26 113.5 1138.46 112.5 1138.88 111.7C1139.3 110.9 1139.88 110.3 1140.6 109.9C1141.33 109.5 1142.15 109.3 1143.06 109.3C1144.1 109.3 1145.02 109.527 1145.82 109.98C1146.62 110.433 1147.25 111.067 1147.72 111.88C1148.18 112.68 1148.42 113.62 1148.42 114.7C1148.42 115.78 1148.18 116.727 1147.72 117.54C1147.25 118.353 1146.62 118.987 1145.82 119.44C1145.02 119.893 1144.1 120.12 1143.06 120.12ZM1137.44 123.88V109.4H1139.28V112.26L1139.16 114.72L1139.36 117.18V123.88H1137.44ZM1142.9 118.44C1143.58 118.44 1144.18 118.287 1144.72 117.98C1145.26 117.673 1145.69 117.24 1146 116.68C1146.32 116.107 1146.48 115.447 1146.48 114.7C1146.48 113.94 1146.32 113.287 1146 112.74C1145.69 112.18 1145.26 111.747 1144.72 111.44C1144.18 111.133 1143.58 110.98 1142.9 110.98C1142.23 110.98 1141.62 111.133 1141.08 111.44C1140.54 111.747 1140.12 112.18 1139.8 112.74C1139.49 113.287 1139.34 113.94 1139.34 114.7C1139.34 115.447 1139.49 116.107 1139.8 116.68C1140.12 117.24 1140.54 117.673 1141.08 117.98C1141.62 118.287 1142.23 118.44 1142.9 118.44ZM1155.61 120.12C1154.54 120.12 1153.6 119.887 1152.77 119.42C1151.94 118.953 1151.29 118.313 1150.81 117.5C1150.33 116.673 1150.09 115.74 1150.09 114.7C1150.09 113.647 1150.33 112.713 1150.81 111.9C1151.29 111.087 1151.94 110.453 1152.77 110C1153.6 109.533 1154.54 109.3 1155.61 109.3C1156.66 109.3 1157.6 109.533 1158.43 110C1159.27 110.453 1159.92 111.087 1160.39 111.9C1160.87 112.7 1161.11 113.633 1161.11 114.7C1161.11 115.753 1160.87 116.687 1160.39 117.5C1159.92 118.313 1159.27 118.953 1158.43 119.42C1157.6 119.887 1156.66 120.12 1155.61 120.12ZM1155.61 118.44C1156.29 118.44 1156.9 118.287 1157.43 117.98C1157.98 117.673 1158.4 117.24 1158.71 116.68C1159.02 116.107 1159.17 115.447 1159.17 114.7C1159.17 113.94 1159.02 113.287 1158.71 112.74C1158.4 112.18 1157.98 111.747 1157.43 111.44C1156.9 111.133 1156.29 110.98 1155.61 110.98C1154.93 110.98 1154.32 111.133 1153.79 111.44C1153.26 111.747 1152.83 112.18 1152.51 112.74C1152.19 113.287 1152.03 113.94 1152.03 114.7C1152.03 115.447 1152.19 116.107 1152.51 116.68C1152.83 117.24 1153.26 117.673 1153.79 117.98C1154.32 118.287 1154.93 118.44 1155.61 118.44ZM1163.77 120V109.4H1165.61V112.28L1165.43 111.56C1165.72 110.827 1166.21 110.267 1166.91 109.88C1167.6 109.493 1168.45 109.3 1169.47 109.3V111.16C1169.39 111.147 1169.31 111.14 1169.23 111.14C1169.16 111.14 1169.09 111.14 1169.03 111.14C1168 111.14 1167.19 111.447 1166.59 112.06C1165.99 112.673 1165.69 113.56 1165.69 114.72V120H1163.77ZM1183.88 120.16C1182.81 120.16 1181.83 119.987 1180.92 119.64C1180.03 119.28 1179.25 118.78 1178.58 118.14C1177.93 117.487 1177.41 116.727 1177.04 115.86C1176.67 114.993 1176.48 114.04 1176.48 113C1176.48 111.96 1176.67 111.007 1177.04 110.14C1177.41 109.273 1177.93 108.52 1178.6 107.88C1179.27 107.227 1180.05 106.727 1180.94 106.38C1181.85 106.02 1182.83 105.84 1183.9 105.84C1184.98 105.84 1185.97 106.027 1186.88 106.4C1187.8 106.76 1188.58 107.3 1189.22 108.02L1187.92 109.28C1187.39 108.72 1186.79 108.307 1186.12 108.04C1185.45 107.76 1184.74 107.62 1183.98 107.62C1183.19 107.62 1182.46 107.753 1181.78 108.02C1181.11 108.287 1180.53 108.66 1180.04 109.14C1179.55 109.62 1179.16 110.193 1178.88 110.86C1178.61 111.513 1178.48 112.227 1178.48 113C1178.48 113.773 1178.61 114.493 1178.88 115.16C1179.16 115.813 1179.55 116.38 1180.04 116.86C1180.53 117.34 1181.11 117.713 1181.78 117.98C1182.46 118.247 1183.19 118.38 1183.98 118.38C1184.74 118.38 1185.45 118.247 1186.12 117.98C1186.79 117.7 1187.39 117.273 1187.92 116.7L1189.22 117.96C1188.58 118.68 1187.8 119.227 1186.88 119.6C1185.97 119.973 1184.97 120.16 1183.88 120.16ZM1191.79 120V105.16H1193.71V120H1191.79ZM1202.1 120.12C1200.97 120.12 1199.97 119.887 1199.1 119.42C1198.25 118.953 1197.58 118.313 1197.1 117.5C1196.63 116.687 1196.4 115.753 1196.4 114.7C1196.4 113.647 1196.63 112.713 1197.08 111.9C1197.55 111.087 1198.18 110.453 1198.98 110C1199.79 109.533 1200.71 109.3 1201.72 109.3C1202.75 109.3 1203.65 109.527 1204.44 109.98C1205.23 110.433 1205.84 111.073 1206.28 111.9C1206.73 112.713 1206.96 113.667 1206.96 114.76C1206.96 114.84 1206.95 114.933 1206.94 115.04C1206.94 115.147 1206.93 115.247 1206.92 115.34H1197.9V113.96H1205.92L1205.14 114.44C1205.15 113.76 1205.01 113.153 1204.72 112.62C1204.43 112.087 1204.02 111.673 1203.5 111.38C1202.99 111.073 1202.4 110.92 1201.72 110.92C1201.05 110.92 1200.46 111.073 1199.94 111.38C1199.42 111.673 1199.01 112.093 1198.72 112.64C1198.43 113.173 1198.28 113.787 1198.28 114.48V114.8C1198.28 115.507 1198.44 116.14 1198.76 116.7C1199.09 117.247 1199.55 117.673 1200.14 117.98C1200.73 118.287 1201.4 118.44 1202.16 118.44C1202.79 118.44 1203.35 118.333 1203.86 118.12C1204.38 117.907 1204.83 117.587 1205.22 117.16L1206.28 118.4C1205.8 118.96 1205.2 119.387 1204.48 119.68C1203.77 119.973 1202.98 120.12 1202.1 120.12ZM1215.24 120.12C1214.34 120.12 1213.52 119.92 1212.78 119.52C1212.06 119.107 1211.49 118.5 1211.06 117.7C1210.65 116.9 1210.44 115.9 1210.44 114.7C1210.44 113.5 1210.66 112.5 1211.08 111.7C1211.52 110.9 1212.1 110.3 1212.82 109.9C1213.56 109.5 1214.36 109.3 1215.24 109.3C1216.28 109.3 1217.2 109.527 1218 109.98C1218.8 110.433 1219.44 111.067 1219.9 111.88C1220.37 112.68 1220.6 113.62 1220.6 114.7C1220.6 115.78 1220.37 116.727 1219.9 117.54C1219.44 118.353 1218.8 118.987 1218 119.44C1217.2 119.893 1216.28 120.12 1215.24 120.12ZM1209.62 120V105.16H1211.54V112.22L1211.34 114.68L1211.46 117.14V120H1209.62ZM1215.08 118.44C1215.76 118.44 1216.37 118.287 1216.9 117.98C1217.45 117.673 1217.88 117.24 1218.18 116.68C1218.5 116.107 1218.66 115.447 1218.66 114.7C1218.66 113.94 1218.5 113.287 1218.18 112.74C1217.88 112.18 1217.45 111.747 1216.9 111.44C1216.37 111.133 1215.76 110.98 1215.08 110.98C1214.42 110.98 1213.81 111.133 1213.26 111.44C1212.73 111.747 1212.3 112.18 1211.98 112.74C1211.68 113.287 1211.52 113.94 1211.52 114.7C1211.52 115.447 1211.68 116.107 1211.98 116.68C1212.3 117.24 1212.73 117.673 1213.26 117.98C1213.81 118.287 1214.42 118.44 1215.08 118.44ZM1227.98 120.12C1226.84 120.12 1225.84 119.887 1224.98 119.42C1224.12 118.953 1223.46 118.313 1222.98 117.5C1222.51 116.687 1222.28 115.753 1222.28 114.7C1222.28 113.647 1222.5 112.713 1222.96 111.9C1223.42 111.087 1224.06 110.453 1224.86 110C1225.67 109.533 1226.58 109.3 1227.6 109.3C1228.62 109.3 1229.53 109.527 1230.32 109.98C1231.1 110.433 1231.72 111.073 1232.16 111.9C1232.61 112.713 1232.84 113.667 1232.84 114.76C1232.84 114.84 1232.83 114.933 1232.82 115.04C1232.82 115.147 1232.81 115.247 1232.8 115.34H1223.78V113.96H1231.8L1231.02 114.44C1231.03 113.76 1230.89 113.153 1230.6 112.62C1230.3 112.087 1229.9 111.673 1229.38 111.38C1228.87 111.073 1228.28 110.92 1227.6 110.92C1226.93 110.92 1226.34 111.073 1225.82 111.38C1225.3 111.673 1224.89 112.093 1224.6 112.64C1224.3 113.173 1224.16 113.787 1224.16 114.48V114.8C1224.16 115.507 1224.32 116.14 1224.64 116.7C1224.97 117.247 1225.43 117.673 1226.02 117.98C1226.6 118.287 1227.28 118.44 1228.04 118.44C1228.66 118.44 1229.23 118.333 1229.74 118.12C1230.26 117.907 1230.71 117.587 1231.1 117.16L1232.16 118.4C1231.68 118.96 1231.08 119.387 1230.36 119.68C1229.65 119.973 1228.86 120.12 1227.98 120.12ZM1235.5 120V109.4H1237.34V112.28L1237.16 111.56C1237.46 110.827 1237.95 110.267 1238.64 109.88C1239.34 109.493 1240.19 109.3 1241.2 109.3V111.16C1241.12 111.147 1241.04 111.14 1240.96 111.14C1240.9 111.14 1240.83 111.14 1240.76 111.14C1239.74 111.14 1238.92 111.447 1238.32 112.06C1237.72 112.673 1237.42 113.56 1237.42 114.72V120H1235.5ZM1249.36 120V106H1255.26C1256.75 106 1258.06 106.293 1259.2 106.88C1260.34 107.467 1261.23 108.287 1261.86 109.34C1262.5 110.393 1262.82 111.613 1262.82 113C1262.82 114.387 1262.5 115.607 1261.86 116.66C1261.23 117.713 1260.34 118.533 1259.2 119.12C1258.06 119.707 1256.75 120 1255.26 120H1249.36ZM1251.36 118.26H1255.14C1256.3 118.26 1257.3 118.04 1258.14 117.6C1258.99 117.16 1259.65 116.547 1260.12 115.76C1260.58 114.96 1260.82 114.04 1260.82 113C1260.82 111.947 1260.58 111.027 1260.12 110.24C1259.65 109.453 1258.99 108.84 1258.14 108.4C1257.3 107.96 1256.3 107.74 1255.14 107.74H1251.36V118.26ZM1270.32 120.12C1269.19 120.12 1268.19 119.887 1267.32 119.42C1266.47 118.953 1265.8 118.313 1265.32 117.5C1264.85 116.687 1264.62 115.753 1264.62 114.7C1264.62 113.647 1264.85 112.713 1265.3 111.9C1265.77 111.087 1266.4 110.453 1267.2 110C1268.01 109.533 1268.93 109.3 1269.94 109.3C1270.97 109.3 1271.87 109.527 1272.66 109.98C1273.45 110.433 1274.06 111.073 1274.5 111.9C1274.95 112.713 1275.18 113.667 1275.18 114.76C1275.18 114.84 1275.17 114.933 1275.16 115.04C1275.16 115.147 1275.15 115.247 1275.14 115.34H1266.12V113.96H1274.14L1273.36 114.44C1273.37 113.76 1273.23 113.153 1272.94 112.62C1272.65 112.087 1272.24 111.673 1271.72 111.38C1271.21 111.073 1270.62 110.92 1269.94 110.92C1269.27 110.92 1268.68 111.073 1268.16 111.38C1267.64 111.673 1267.23 112.093 1266.94 112.64C1266.65 113.173 1266.5 113.787 1266.5 114.48V114.8C1266.5 115.507 1266.66 116.14 1266.98 116.7C1267.31 117.247 1267.77 117.673 1268.36 117.98C1268.95 118.287 1269.62 118.44 1270.38 118.44C1271.01 118.44 1271.57 118.333 1272.08 118.12C1272.6 117.907 1273.05 117.587 1273.44 117.16L1274.5 118.4C1274.02 118.96 1273.42 119.387 1272.7 119.68C1271.99 119.973 1271.2 120.12 1270.32 120.12ZM1277.85 120V105.16H1279.77V120H1277.85ZM1288.07 124C1287.1 124 1286.15 123.86 1285.23 123.58C1284.33 123.313 1283.59 122.927 1283.01 122.42L1283.93 120.94C1284.43 121.367 1285.03 121.7 1285.75 121.94C1286.47 122.193 1287.23 122.32 1288.01 122.32C1289.27 122.32 1290.19 122.027 1290.77 121.44C1291.36 120.853 1291.65 119.96 1291.65 118.76V116.52L1291.85 114.42L1291.75 112.3V109.4H1293.57V118.56C1293.57 120.427 1293.11 121.8 1292.17 122.68C1291.24 123.56 1289.87 124 1288.07 124ZM1287.83 119.56C1286.81 119.56 1285.89 119.347 1285.07 118.92C1284.27 118.48 1283.63 117.873 1283.15 117.1C1282.69 116.327 1282.45 115.433 1282.45 114.42C1282.45 113.393 1282.69 112.5 1283.15 111.74C1283.63 110.967 1284.27 110.367 1285.07 109.94C1285.89 109.513 1286.81 109.3 1287.83 109.3C1288.74 109.3 1289.57 109.487 1290.31 109.86C1291.06 110.22 1291.65 110.78 1292.09 111.54C1292.55 112.3 1292.77 113.26 1292.77 114.42C1292.77 115.567 1292.55 116.52 1292.09 117.28C1291.65 118.04 1291.06 118.613 1290.31 119C1289.57 119.373 1288.74 119.56 1287.83 119.56ZM1288.05 117.88C1288.76 117.88 1289.39 117.733 1289.93 117.44C1290.48 117.147 1290.91 116.74 1291.21 116.22C1291.53 115.7 1291.69 115.1 1291.69 114.42C1291.69 113.74 1291.53 113.14 1291.21 112.62C1290.91 112.1 1290.48 111.7 1289.93 111.42C1289.39 111.127 1288.76 110.98 1288.05 110.98C1287.35 110.98 1286.71 111.127 1286.15 111.42C1285.61 111.7 1285.17 112.1 1284.85 112.62C1284.55 113.14 1284.39 113.74 1284.39 114.42C1284.39 115.1 1284.55 115.7 1284.85 116.22C1285.17 116.74 1285.61 117.147 1286.15 117.44C1286.71 117.733 1287.35 117.88 1288.05 117.88ZM1303.82 120V117.76L1303.72 117.34V113.52C1303.72 112.707 1303.48 112.08 1303 111.64C1302.54 111.187 1301.83 110.96 1300.88 110.96C1300.26 110.96 1299.64 111.067 1299.04 111.28C1298.44 111.48 1297.94 111.753 1297.52 112.1L1296.72 110.66C1297.27 110.22 1297.92 109.887 1298.68 109.66C1299.46 109.42 1300.26 109.3 1301.1 109.3C1302.56 109.3 1303.68 109.653 1304.46 110.36C1305.25 111.067 1305.64 112.147 1305.64 113.6V120H1303.82ZM1300.34 120.12C1299.56 120.12 1298.86 119.987 1298.26 119.72C1297.68 119.453 1297.22 119.087 1296.9 118.62C1296.58 118.14 1296.42 117.6 1296.42 117C1296.42 116.427 1296.56 115.907 1296.82 115.44C1297.1 114.973 1297.55 114.6 1298.16 114.32C1298.79 114.04 1299.63 113.9 1300.68 113.9H1304.04V115.28H1300.76C1299.8 115.28 1299.16 115.44 1298.82 115.76C1298.49 116.08 1298.32 116.467 1298.32 116.92C1298.32 117.44 1298.53 117.86 1298.94 118.18C1299.36 118.487 1299.93 118.64 1300.66 118.64C1301.38 118.64 1302.01 118.48 1302.54 118.16C1303.09 117.84 1303.48 117.373 1303.72 116.76L1304.1 118.08C1303.85 118.707 1303.4 119.207 1302.76 119.58C1302.12 119.94 1301.32 120.12 1300.34 120.12ZM1313.58 120.12C1312.55 120.12 1311.63 119.893 1310.82 119.44C1310.02 118.987 1309.38 118.353 1308.92 117.54C1308.45 116.727 1308.22 115.78 1308.22 114.7C1308.22 113.62 1308.45 112.68 1308.92 111.88C1309.38 111.067 1310.02 110.433 1310.82 109.98C1311.63 109.527 1312.55 109.3 1313.58 109.3C1314.47 109.3 1315.28 109.5 1316 109.9C1316.72 110.3 1317.29 110.9 1317.72 111.7C1318.16 112.5 1318.38 113.5 1318.38 114.7C1318.38 115.9 1318.16 116.9 1317.74 117.7C1317.32 118.5 1316.76 119.107 1316.04 119.52C1315.32 119.92 1314.5 120.12 1313.58 120.12ZM1313.74 118.44C1314.4 118.44 1315 118.287 1315.54 117.98C1316.08 117.673 1316.51 117.24 1316.82 116.68C1317.14 116.107 1317.3 115.447 1317.3 114.7C1317.3 113.94 1317.14 113.287 1316.82 112.74C1316.51 112.18 1316.08 111.747 1315.54 111.44C1315 111.133 1314.4 110.98 1313.74 110.98C1313.06 110.98 1312.45 111.133 1311.92 111.44C1311.38 111.747 1310.96 112.18 1310.64 112.74C1310.32 113.287 1310.16 113.94 1310.16 114.7C1310.16 115.447 1310.32 116.107 1310.64 116.68C1310.96 117.24 1311.38 117.673 1311.92 117.98C1312.45 118.287 1313.06 118.44 1313.74 118.44ZM1317.36 120V117.14L1317.47 114.68L1317.28 112.22V105.16H1319.2V120H1317.36ZM1327.37 120.12C1326.3 120.12 1325.35 119.887 1324.53 119.42C1323.7 118.953 1323.05 118.313 1322.57 117.5C1322.09 116.673 1321.85 115.74 1321.85 114.7C1321.85 113.647 1322.09 112.713 1322.57 111.9C1323.05 111.087 1323.7 110.453 1324.53 110C1325.35 109.533 1326.3 109.3 1327.37 109.3C1328.42 109.3 1329.36 109.533 1330.19 110C1331.03 110.453 1331.68 111.087 1332.15 111.9C1332.63 112.7 1332.87 113.633 1332.87 114.7C1332.87 115.753 1332.63 116.687 1332.15 117.5C1331.68 118.313 1331.03 118.953 1330.19 119.42C1329.36 119.887 1328.42 120.12 1327.37 120.12ZM1327.37 118.44C1328.05 118.44 1328.65 118.287 1329.19 117.98C1329.73 117.673 1330.16 117.24 1330.47 116.68C1330.77 116.107 1330.93 115.447 1330.93 114.7C1330.93 113.94 1330.77 113.287 1330.47 112.74C1330.16 112.18 1329.73 111.747 1329.19 111.44C1328.65 111.133 1328.05 110.98 1327.37 110.98C1326.69 110.98 1326.08 111.133 1325.55 111.44C1325.01 111.747 1324.59 112.18 1324.27 112.74C1323.95 113.287 1323.79 113.94 1323.79 114.7C1323.79 115.447 1323.95 116.107 1324.27 116.68C1324.59 117.24 1325.01 117.673 1325.55 117.98C1326.08 118.287 1326.69 118.44 1327.37 118.44ZM1335.75 120.12C1335.38 120.12 1335.06 119.993 1334.79 119.74C1334.52 119.473 1334.39 119.14 1334.39 118.74C1334.39 118.34 1334.52 118.013 1334.79 117.76C1335.06 117.507 1335.38 117.38 1335.75 117.38C1336.11 117.38 1336.42 117.507 1336.67 117.76C1336.94 118.013 1337.07 118.34 1337.07 118.74C1337.07 119.14 1336.94 119.473 1336.67 119.74C1336.42 119.993 1336.11 120.12 1335.75 120.12Z" fill="white"/>
<path d="M689.008 115.46C687.263 115.46 685.701 115.076 684.313 114.298C682.934 113.521 681.843 112.456 681.049 111.093C680.254 109.731 679.853 108.185 679.853 106.465C679.853 104.745 680.254 103.173 681.049 101.836C681.843 100.5 682.925 99.4436 684.295 98.6664C685.666 97.8891 687.237 97.5049 689.008 97.5049C690.78 97.5049 692.316 97.8891 693.704 98.6489C695.083 99.4087 696.165 100.465 696.95 101.819C697.736 103.173 698.129 104.718 698.129 106.465C698.129 108.212 697.736 109.757 696.95 111.111C696.165 112.465 695.083 113.521 693.704 114.298C692.325 115.076 690.754 115.46 689.008 115.46ZM689.008 112.674C690.134 112.674 691.147 112.421 692.046 111.914C692.944 111.408 693.643 110.683 694.149 109.74C694.655 108.797 694.908 107.714 694.908 106.474C694.908 105.234 694.655 104.125 694.149 103.208C693.643 102.291 692.936 101.574 692.046 101.068C691.147 100.561 690.134 100.308 689.008 100.308C687.882 100.308 686.879 100.561 685.989 101.068C685.107 101.574 684.4 102.291 683.868 103.208C683.335 104.125 683.074 105.216 683.074 106.474C683.074 107.731 683.335 108.805 683.868 109.74C684.4 110.683 685.107 111.408 685.989 111.914C686.87 112.421 687.882 112.674 689.008 112.674Z" fill="white"/>
<path d="M703.601 115.259V97.6708H706.656V102.448L706.359 101.251C706.848 100.037 707.659 99.103 708.811 98.4655C709.963 97.828 711.377 97.5049 713.053 97.5049V100.588C712.922 100.57 712.791 100.553 712.669 100.553H712.32C710.618 100.553 709.265 101.059 708.27 102.081C707.275 103.103 706.778 104.57 706.778 106.491V115.25H703.592L703.601 115.259Z" fill="white"/>
<path d="M725.158 114.534C723.456 114.534 721.938 114.176 720.594 113.46C719.25 112.744 718.194 111.74 717.408 110.456C716.623 109.172 716.23 107.688 716.23 106.011C716.23 104.334 716.623 102.823 717.408 101.548C718.194 100.273 719.258 99.2865 720.594 98.5791C721.929 97.8717 723.448 97.5137 725.158 97.5137C726.659 97.5137 728.03 97.8193 729.269 98.4219C730.508 99.0332 731.495 99.9677 732.236 101.225C732.978 102.483 733.345 104.081 733.345 106.002C733.345 107.923 732.978 109.487 732.236 110.744C731.495 112.002 730.508 112.954 729.269 113.582C728.03 114.211 726.659 114.526 725.158 114.526V114.534ZM725.56 121.905C723.945 121.905 722.383 121.678 720.864 121.224C719.346 120.77 718.115 120.123 717.164 119.285L718.691 116.831C719.511 117.538 720.515 118.097 721.711 118.508C722.907 118.918 724.155 119.119 725.455 119.119C727.532 119.119 729.059 118.63 730.028 117.661C730.997 116.691 731.486 115.207 731.486 113.216V109.495L731.817 106.011L731.652 102.491V97.6796H734.671V112.875C734.671 115.975 733.895 118.255 732.35 119.713C730.805 121.171 728.536 121.905 725.551 121.905H725.56ZM725.525 111.748C726.694 111.748 727.733 111.504 728.641 111.015C729.548 110.526 730.264 109.853 730.779 108.989C731.302 108.124 731.556 107.129 731.556 106.002C731.556 104.876 731.294 103.88 730.779 103.015C730.264 102.151 729.548 101.487 728.641 101.007C727.733 100.535 726.694 100.291 725.525 100.291C724.355 100.291 723.308 100.527 722.392 101.007C721.475 101.478 720.751 102.151 720.236 103.015C719.721 103.88 719.459 104.876 719.459 106.002C719.459 107.129 719.721 108.124 720.236 108.989C720.76 109.853 721.475 110.526 722.392 111.015C723.308 111.504 724.355 111.748 725.525 111.748Z" fill="white"/>
<path d="M746.951 115.46C745.642 115.46 744.499 115.242 743.521 114.796C742.535 114.351 741.776 113.74 741.252 112.954C740.72 112.168 740.458 111.277 740.458 110.281C740.458 109.286 740.685 108.465 741.139 107.696C741.592 106.919 742.334 106.299 743.364 105.836C744.394 105.373 745.782 105.137 747.527 105.137H753.095V107.426H747.658C746.07 107.426 744.996 107.688 744.438 108.22C743.888 108.753 743.608 109.39 743.608 110.142C743.608 111.006 743.949 111.696 744.638 112.22C745.319 112.744 746.27 112.997 747.492 112.997C748.714 112.997 749.735 112.735 750.625 112.202C751.524 111.67 752.17 110.901 752.563 109.88L753.191 112.072C752.772 113.111 752.031 113.932 750.966 114.543C749.901 115.154 748.566 115.451 746.951 115.451V115.46ZM752.72 115.259V111.539L752.554 110.84V104.5C752.554 103.155 752.162 102.107 751.376 101.365C750.591 100.623 749.412 100.256 747.841 100.256C746.803 100.256 745.782 100.43 744.787 100.771C743.792 101.112 742.954 101.574 742.264 102.151L740.938 99.7579C741.845 99.0244 742.936 98.4655 744.202 98.0812C745.476 97.697 746.803 97.4961 748.199 97.4961C750.608 97.4961 752.467 98.0812 753.767 99.2514C755.068 100.422 755.722 102.221 755.722 104.631V115.25H752.703L752.72 115.259Z" fill="white"/>
<path d="M772.087 97.5049C773.527 97.5049 774.792 97.7843 775.883 98.3345C776.974 98.8847 777.838 99.7318 778.449 100.858C779.06 101.985 779.374 103.417 779.374 105.138V115.259H776.189V105.504C776.189 103.801 775.779 102.518 774.949 101.653C774.12 100.788 772.951 100.361 771.45 100.361C770.324 100.361 769.338 100.579 768.5 101.024C767.662 101.47 767.016 102.116 766.562 102.98C766.108 103.845 765.881 104.919 765.881 106.203V115.259H762.696V97.6708H765.75V102.413L765.253 101.155C765.829 100.003 766.711 99.1118 767.906 98.4655C769.102 97.828 770.49 97.5049 772.087 97.5049Z" fill="white"/>
<path d="M793.88 115.46C792.134 115.46 790.572 115.076 789.184 114.298C787.805 113.521 786.714 112.456 785.92 111.093C785.126 109.731 784.724 108.185 784.724 106.465C784.724 104.745 785.126 103.173 785.92 101.836C786.714 100.5 787.796 99.4436 789.167 98.6664C790.537 97.8891 792.108 97.5049 793.88 97.5049C795.651 97.5049 797.187 97.8891 798.575 98.6489C799.963 99.4087 801.036 100.465 801.822 101.819C802.607 103.173 803 104.718 803 106.465C803 108.212 802.607 109.757 801.822 111.111C801.036 112.465 799.954 113.521 798.575 114.298C797.196 115.076 795.625 115.46 793.88 115.46ZM793.88 112.674C795.006 112.674 796.018 112.421 796.917 111.914C797.816 111.408 798.514 110.683 799.02 109.74C799.526 108.797 799.78 107.714 799.78 106.474C799.78 105.234 799.526 104.125 799.02 103.208C798.514 102.291 797.807 101.574 796.917 101.068C796.018 100.561 795.014 100.308 793.88 100.308C792.745 100.308 791.741 100.561 790.86 101.068C789.978 101.574 789.271 102.291 788.739 103.208C788.207 104.125 787.945 105.216 787.945 106.474C787.945 107.731 788.207 108.805 788.739 109.74C789.271 110.683 789.978 111.408 790.86 111.914C791.741 112.421 792.754 112.674 793.88 112.674Z" fill="white"/>
<path d="M642.307 87.2262C642.525 87.6629 642.97 87.9423 643.459 87.9423C643.947 87.9423 644.393 87.6629 644.611 87.2262L649.795 76.8689C649.996 76.4671 649.97 75.9956 649.734 75.6113C649.498 75.2271 649.079 75 648.634 75H638.292C637.847 75 637.428 75.2358 637.192 75.6113C636.957 75.9956 636.939 76.4671 637.131 76.8689L642.307 87.2262ZM646.548 77.585L643.467 83.7592L640.387 77.585H646.548ZM643.467 112.971C645.187 112.971 646.828 112.29 648.041 111.076C649.254 109.862 649.935 108.212 649.935 106.5C649.935 104.788 649.254 103.138 648.041 101.924C646.828 100.71 645.178 100.029 643.467 100.029C641.757 100.029 640.107 100.71 638.894 101.924C637.681 103.138 637 104.788 637 106.5C637 108.212 637.681 109.862 638.894 111.076C640.107 112.29 641.748 112.971 643.467 112.971ZM643.467 102.614C644.497 102.614 645.484 103.024 646.217 103.749C646.941 104.474 647.351 105.47 647.351 106.5C647.351 107.53 646.941 108.517 646.217 109.251C645.492 109.976 644.497 110.386 643.467 110.386C642.438 110.386 641.451 109.976 640.718 109.251C639.994 108.526 639.584 107.53 639.584 106.5C639.584 105.47 639.994 104.483 640.718 103.749C641.443 103.024 642.438 102.614 643.467 102.614ZM638.292 138H648.643C649.359 138 649.935 137.424 649.935 136.708V126.35C649.935 125.634 649.359 125.058 648.643 125.058H638.292C637.576 125.058 637 125.634 637 126.35V136.708C637 137.424 637.576 138 638.292 138ZM639.584 127.643H647.351V135.415H639.584V127.643ZM660.286 130.236V107.792H652.954C652.239 107.792 651.663 107.216 651.663 106.5C651.663 105.784 652.239 105.208 652.954 105.208H660.286V82.7637H652.954C652.239 82.7637 651.663 82.1873 651.663 81.4712C651.663 80.7551 652.239 80.1787 652.954 80.1787H661.577C662.293 80.1787 662.869 80.7551 662.869 81.4712V105.208H670.2C670.916 105.208 671.492 105.784 671.492 106.5C671.492 107.216 670.916 107.792 670.2 107.792H662.869V131.529C662.869 132.245 662.293 132.821 661.577 132.821H652.954C652.239 132.821 651.663 132.245 651.663 131.529C651.663 130.813 652.239 130.236 652.954 130.236H660.286Z" fill="white"/>
<path d="M189.702 107C189.702 100.578 184.499 95.375 178.077 95.375C171.655 95.375 166.452 100.578 166.452 107C166.452 112.812 170.671 117.641 176.249 118.484V110.375H173.296V107H176.249V104.469C176.249 101.562 177.983 99.9219 180.608 99.9219C181.921 99.9219 183.233 100.156 183.233 100.156V103.016H181.78C180.327 103.016 179.858 103.906 179.858 104.844V107H183.093L182.577 110.375H179.858V118.484C185.436 117.641 189.702 112.812 189.702 107Z" fill="white"/>
<path d="M254.516 102.125C255.453 101.422 256.297 100.578 256.953 99.5938C256.109 99.9688 255.125 100.25 254.141 100.344C255.172 99.7344 255.922 98.7969 256.297 97.625C255.359 98.1875 254.281 98.6094 253.203 98.8438C252.266 97.8594 251 97.2969 249.594 97.2969C246.875 97.2969 244.672 99.5 244.672 102.219C244.672 102.594 244.719 102.969 244.812 103.344C240.734 103.109 237.078 101.141 234.641 98.1875C234.219 98.8906 233.984 99.7344 233.984 100.672C233.984 102.359 234.828 103.859 236.188 104.75C235.391 104.703 234.594 104.516 233.938 104.141V104.188C233.938 106.578 235.625 108.547 237.875 109.016C237.5 109.109 237.031 109.203 236.609 109.203C236.281 109.203 236 109.156 235.672 109.109C236.281 111.078 238.109 112.484 240.266 112.531C238.578 113.844 236.469 114.641 234.172 114.641C233.75 114.641 233.375 114.594 233 114.547C235.156 115.953 237.734 116.75 240.547 116.75C249.594 116.75 254.516 109.297 254.516 102.781C254.516 102.547 254.516 102.359 254.516 102.125Z" fill="white"/>
<path d="M310.5 101.609C307.5 101.609 305.109 104.047 305.109 107C305.109 110 307.5 112.391 310.5 112.391C313.453 112.391 315.891 110 315.891 107C315.891 104.047 313.453 101.609 310.5 101.609ZM310.5 110.516C308.578 110.516 306.984 108.969 306.984 107C306.984 105.078 308.531 103.531 310.5 103.531C312.422 103.531 313.969 105.078 313.969 107C313.969 108.969 312.422 110.516 310.5 110.516ZM317.344 101.422C317.344 100.719 316.781 100.156 316.078 100.156C315.375 100.156 314.812 100.719 314.812 101.422C314.812 102.125 315.375 102.688 316.078 102.688C316.781 102.688 317.344 102.125 317.344 101.422ZM320.906 102.688C320.812 101 320.438 99.5 319.219 98.2812C318 97.0625 316.5 96.6875 314.812 96.5938C313.078 96.5 307.875 96.5 306.141 96.5938C304.453 96.6875 303 97.0625 301.734 98.2812C300.516 99.5 300.141 101 300.047 102.688C299.953 104.422 299.953 109.625 300.047 111.359C300.141 113.047 300.516 114.5 301.734 115.766C303 116.984 304.453 117.359 306.141 117.453C307.875 117.547 313.078 117.547 314.812 117.453C316.5 117.359 318 116.984 319.219 115.766C320.438 114.5 320.812 113.047 320.906 111.359C321 109.625 321 104.422 320.906 102.688ZM318.656 113.188C318.328 114.125 317.578 114.828 316.688 115.203C315.281 115.766 312 115.625 310.5 115.625C308.953 115.625 305.672 115.766 304.312 115.203C303.375 114.828 302.672 114.125 302.297 113.188C301.734 111.828 301.875 108.547 301.875 107C301.875 105.5 301.734 102.219 302.297 100.812C302.672 99.9219 303.375 99.2188 304.312 98.8438C305.672 98.2812 308.953 98.4219 310.5 98.4219C312 98.4219 315.281 98.2812 316.688 98.8438C317.578 99.1719 318.281 99.9219 318.656 100.812C319.219 102.219 319.078 105.5 319.078 107C319.078 108.547 319.219 111.828 318.656 113.188Z" fill="white"/>
<circle cx="932.5" cy="69.5" r="43.5" stroke="white" stroke-width="2"/>
<path d="M436.812 107.642L526.319 83.6586L502.336 173.166L436.812 107.642Z" stroke="#95FFD4" stroke-width="2"/>
<path d="M36.7609 173.5L74 109L111.239 173.5H36.7609Z" stroke="#95FFD4" stroke-width="2"/>
<circle cx="1400.5" cy="177.5" r="54.5" stroke="#95FFD4" stroke-width="2"/>
</g>
<defs>
<filter id="filter0_d_196_1397" x="-4" y="0" width="1464" height="241" filterUnits="userSpaceOnUse" color-interpolation-filters="sRGB">
<feFlood flood-opacity="0" result="BackgroundImageFix"/>
<feColorMatrix in="SourceAlpha" type="matrix" values="0 0 0 0 0 0 0 0 0 0 0 0 0 0 0 0 0 0 127 0" result="hardAlpha"/>
<feOffset dy="4"/>
<feGaussianBlur stdDeviation="2"/>
<feComposite in2="hardAlpha" operator="out"/>
<feColorMatrix type="matrix" values="0 0 0 0 0 0 0 0 0 0 0 0 0 0 0 0 0 0 0.25 0"/>
<feBlend mode="normal" in2="BackgroundImageFix" result="effect1_dropShadow_196_1397"/>
<feBlend mode="normal" in="SourceGraphic" in2="effect1_dropShadow_196_1397" result="shape"/>
</filter>
</defs>
</svg>
